<?xml version="1.0" encoding="UTF-8"?>
<!DOCTYPE svg PUBLIC "-//W3C//DTD SVG 1.1//EN" "http://www.w3.org/Graphics/SVG/1.1/DTD/svg11.dtd">
<svg xmlns="http://www.w3.org/2000/svg" version="1.1" width="128px" height="128px" style="shape-rendering:geometricPrecision; text-rendering:geometricPrecision; image-rendering:optimizeQuality; fill-rule:evenodd; clip-rule:evenodd" xmlns:xlink="http://www.w3.org/1999/xlink">
<g><path style="opacity:0.942" fill="#8F00FF" d="M 23.5,-0.5 C 50.1667,-0.5 76.8333,-0.5 103.5,-0.5C 115.833,3.16667 123.833,11.1667 127.5,23.5C 127.5,50.1667 127.5,76.8333 127.5,103.5C 123.833,115.833 115.833,123.833 103.5,127.5C 76.8333,127.5 50.1667,127.5 23.5,127.5C 11.1667,123.833 3.16667,115.833 -0.5,103.5C -0.5,76.8333 -0.5,50.1667 -0.5,23.5C 3.16667,11.1667 11.1667,3.16667 23.5,-0.5 Z M 28.5,10.5 C 51.8357,10.3334 75.169,10.5 98.5,11C 108.333,12.8333 114.167,18.6667 116,28.5C 116.667,51.8333 116.667,75.1667 116,98.5C 114.167,108.333 108.333,114.167 98.5,116C 75.1667,116.667 51.8333,116.667 28.5,116C 18.6667,114.167 12.8333,108.333 11,98.5C 10.3333,75.1667 10.3333,51.8333 11,28.5C 13.0141,18.654 18.8474,12.654 28.5,10.5 Z"/></g>
<g><path style="opacity:0.884" fill="#8F00FF" d="M 59.5,31.5 C 62.1873,31.3359 64.854,31.5026 67.5,32C 68.1258,32.7504 68.6258,33.5838 69,34.5C 69.4997,42.1594 69.6664,49.8261 69.5,57.5C 77.1739,57.3336 84.8406,57.5003 92.5,58C 94.9544,58.9425 95.9544,60.7759 95.5,63.5C 95.9544,66.2241 94.9544,68.0575 92.5,69C 84.8406,69.4997 77.1739,69.6664 69.5,69.5C 69.6664,77.1739 69.4997,84.8406 69,92.5C 68.0575,94.9544 66.2241,95.9544 63.5,95.5C 60.7759,95.9544 58.9425,94.9544 58,92.5C 57.5003,84.8406 57.3336,77.1739 57.5,69.5C 49.8261,69.6664 42.1594,69.4997 34.5,69C 32.0456,68.0575 31.0456,66.2241 31.5,63.5C 31.0456,60.7759 32.0456,58.9425 34.5,58C 42.1594,57.5003 49.8261,57.3336 57.5,57.5C 57.3336,49.8261 57.5003,42.1594 58,34.5C 58.5133,33.4734 59.0133,32.4734 59.5,31.5 Z"/></g>
</svg>
